<?xml version="1.0" encoding="UTF-8"?><svg id="Layer_1" xmlns="http://www.w3.org/2000/svg" xmlns:xlink="http://www.w3.org/1999/xlink" viewBox="0 0 840 320"><defs><style>.cls-1{fill:#233269;}.cls-2{clip-path:url(#clippath-1);}.cls-3{fill:url(#radial-gradient);}.cls-4{clip-path:url(#clippath);}.cls-5{fill:none;}</style><clipPath id="clippath"><path class="cls-5" d="M302.77,148.06c-7.92,.96-11.76,9.57-13.58,16.52-.74,2.38-2.43,9.8-3.54,30.19-1.36,24.84-4.98,46.81-9.67,58.46l-.07,.23c19.88-25.64,31.71-57.81,31.71-92.76,0-4.23-.18-8.4-.52-12.54-.77-.14-1.59-.22-2.45-.22-.61,0-1.23,.04-1.89,.11m-54.93,3.83c-14.07,19.02-25.76,45.74-30.35,56.91-8.04,21.67-30.34,72.32-69.23,93.19-8.05,5.01-14.25,7.11-18.74,7.9,8.63,1.52,17.52,2.33,26.58,2.33,2.62,0,5.23-.07,7.82-.2,11.2-.57,22.25-2.85,32.55-7.28,33.9-14.57,59.58-46.28,67.38-84.52,4.64-18.51,6.8-36.75,10.51-50.25,2.17-9.25,10.31-35.64,31.58-31.88-.92-6.19-2.23-12.24-3.87-18.15-7.05,.1-33.9,2.49-54.24,31.94m-25.24-105.16c2.92,3.52,5.77,7.29,8.48,11.35,.58,.86,1.14,1.7,1.7,2.53,7.54,11.51,12.79,19.29,16.37,24.26l.22,.31,.44,.6,.57,.77,.36,.49c1.07,1.43,1.95,2.55,2.68,3.38,11.84,14.19,22.67,17.45,30.65,17.07,1.39-.1,2.8-.35,4.21-.79,3.03-.94,5.58-2.58,7.52-4.61-19.58-46.61-61.79-81.35-112.88-90.5,8,3.98,22.55,13.48,39.68,35.15M131.47,11.18c18.66,7.81,70.61,34.33,72.39,83.33,.78,21.5-5.49,37.54-13.77,49.24-3.19,4.99-7.08,9.53-11.49,13.52-10.57,10.42-25.75,18.29-43.4,21.32-9.55,1.64-18.9,1.7-27.6,.41-1.94-.28-3.85-.63-5.71-1.06l-.82-.19c-.62-.14-1.23-.3-1.83-.45l-.98-.26c-.61-.17-1.22-.35-1.83-.53l-.81-.25-.22-.04c-23.72-5.58-40.28-27.87-37.93-52.74,1.9-19.99,15.52-36.07,33.45-42.12,6.06-1.76,11.6-2.48,16.3-2.59h1.86s.28,0,.28,0h.2c.44,0,.88,.01,1.32,.02,.9,.04,1.75,.1,2.57,.18,2.78,.26,5.3,.71,7.6,1.29,3.55,1.04,6.59,2.56,9.17,4.34l.03,.02c3.32,2.55,6.18,5.39,7.99,8.62-1.15-.48-2.34-.93-3.56-1.32-12.04-3.86-24.29-2.33-33.37,3.16-5.61,3.2-10.04,7.91-12.48,13.9-3.85,9.45-1.95,20.08,4.15,29.06l.75,.98c4.88,6.51,12.26,11.77,21.15,14.61,5.65,1.82,11.35,2.44,16.74,2.03,27.57-.14,51.41-23.09,54.92-53.69,1.37-16.75-3.87-35.25-22.31-53.43-15.73-15.51-34.99-25.57-54.77-32.05-15.95,5.16-30.74,12.87-43.89,22.66,12.61-1.83,36.86-3.01,61.33,8.67,29.36,14.61,32.89,38.85,32.68,43.06-10.84-21.75-30.59-33.46-53.05-36.94-26.17-4.07-51.53,4.55-70.13,21.37-11.93,10.81-20.27,24.94-25.05,40.31-4.44,14.24-6.83,29.4-6.83,45.1,0,67.05,43.55,123.92,103.91,143.89-3.28-3.43-17.2-20.87,0-54.88,6.21-12.29,14.83-23.2,24.98-32.5,16.99-15.56,37.79-29.1,48.78-37.09,15.94-11.6,45.53-40.12,41.51-81.74-3.65-57.35-48.1-82.86-60.96-89.07-2.22-.1-4.44-.15-6.67-.15-8.37,0-16.57,.69-24.56,1.99"/></clipPath><radialGradient id="radial-gradient" cx="-297.27" cy="703.75" fx="-297.27" fy="703.75" r="4.77" gradientTransform="translate(23449.54 10000.73) rotate(90) scale(33.1)" gradientUnits="userSpaceOnUse"><stop offset="0" stop-color="#1288ca"/><stop offset=".01" stop-color="#1288ca"/><stop offset=".16" stop-color="#1284c5"/><stop offset=".32" stop-color="#1479b9"/><stop offset=".48" stop-color="#1866a4"/><stop offset=".64" stop-color="#1d4d87"/><stop offset=".78" stop-color="#233269"/><stop offset="1" stop-color="#233269"/></radialGradient><clipPath id="clippath-1"><rect class="cls-5" x="-30.32" y="-25.64" width="866.32" height="372.68"/></clipPath></defs><g class="cls-4"><rect class="cls-3" x="-11.97" y="-7.37" width="336.06" height="336.15" transform="translate(-21.62 297.13) rotate(-83.36)"/></g><g class="cls-2"><path class="cls-1" d="M540.44,61.44h-26.44c-.94,0-1.71,.76-1.71,1.71v124.62c0,.94,.77,1.71,1.71,1.71h26.44c.94,0,1.7-.77,1.7-1.71V63.14c0-.94-.76-1.71-1.7-1.71"/><path class="cls-1" d="M750.2,73.94l-14.85,113.6c-.13,1.02,.67,1.93,1.69,1.93h26.67c.86,0,1.58-.63,1.69-1.49l2.75-20.97h35.06l2.74,20.97c.1,.85,.83,1.49,1.69,1.49h26.66c1.03,0,1.83-.91,1.69-1.93l-14.85-113.6c-.93-7.09-6.97-12.38-14.11-12.38h-42.72c-7.14,0-13.18,5.3-14.1,12.38m21.85,63.23l5.61-42.82c.21-1.69,1.65-2.94,3.35-2.94h9.32c1.7,0,3.13,1.26,3.35,2.94l5.6,42.82h-27.24Z"/><path class="cls-1" d="M725.57,61.42h-26.84l-1.12,.41-.57,1.05-13.74,95.98-.03,.22h-.02l-.72,.66-.72-.66h-.02l-8.61-84.87c-.74-7.26-6.86-12.79-14.16-12.79h-29.37c-7.3,0-13.42,5.53-14.16,12.79l-8.6,84.87h-.02l-.72,.66-.72-.66h-.01l-.03-.22-13.74-95.98c-.12-.84-.84-1.46-1.69-1.46h-26.84c-1.04,0-1.84,.92-1.69,1.95l16.27,113.88c1,7.01,7,12.22,14.09,12.22h28.51c7.31,0,13.42-5.53,14.16-12.79l8.58-84.49,.1-.36,.08-.2,.14-.2,.14-.15,.21-.15,.17-.1,.43-.08h.04s.03,0,.03,0l.42,.08,.17,.1,.22,.15,.14,.15,.14,.2,.08,.2,.09,.36,8.59,84.49c.74,7.27,6.85,12.79,14.15,12.79h28.51c.89,0,1.75-.09,2.6-.24,2.11-.39,4.06-1.25,5.75-2.47,3.03-2.19,5.17-5.57,5.74-9.51l16.28-113.88c.14-1.03-.65-1.95-1.69-1.95"/><path class="cls-1" d="M485.17,61.42h-25.87c-.94,0-1.71,.76-1.71,1.71v95.57h0s-.05,.36-.05,.36l-.06,.21-.12,.2-.12,.16-.2,.14-.16,.1-.42,.09h-.08l-.43-.09-.18-.1-.23-.14-.15-.16-.17-.2-.1-.21-.12-.36h0s-27.36-85.35-27.36-85.35c-1.83-6.84-8.26-11.94-15.27-11.94h-29.37c-7.3,0-12.84,5.53-12.82,12.79v113.55c0,.94,.76,1.72,1.71,1.72h25.99c.95,0,1.72-.77,1.72-1.72V92.18l.05-.36,.06-.2,.12-.21,.12-.15,.2-.15,.16-.1,.42-.09h.08l.43,.09,.18,.1,.23,.15,.15,.15,.17,.21,.1,.2,.12,.36,27.53,85.96c2.04,6.53,8.31,11.33,15.11,11.33h29.37c7.3,0,12.71-5.53,12.69-12.79V63.13c0-.95-.77-1.71-1.71-1.71"/><polygon class="cls-1" points="381.41 229.23 381.41 260.74 376.92 260.74 376.92 229.23 370.18 229.23 370.18 225.38 388.16 225.38 388.16 229.23 381.41 229.23"/><path class="cls-1" d="M401.24,260.74c-.13-.76-.23-1.53-.3-2.3-.07-.77-.1-1.38-.1-1.85h-.1c-.37,1.5-1.02,2.67-1.97,3.52-.95,.85-2.25,1.27-3.92,1.27-.7,0-1.42-.13-2.14-.4-.74-.27-1.4-.7-1.97-1.3-.59-.6-1.07-1.36-1.45-2.3-.39-.93-.57-2.08-.57-3.45,0-1.79,.32-3.27,.97-4.42,.65-1.15,1.47-2.05,2.45-2.7,.98-.65,2.07-1.09,3.27-1.32,1.2-.23,2.35-.35,3.45-.35h1.65v-1.1c0-1.96-.37-3.39-1.12-4.27-.75-.88-1.75-1.32-3.02-1.32-.93,0-1.8,.23-2.6,.7-.8,.47-1.48,1.09-2.05,1.85l-2.15-2.65c.83-1.13,1.92-2.01,3.25-2.62,1.33-.62,2.64-.92,3.95-.92,1.43,0,2.64,.23,3.62,.7,.98,.47,1.77,1.15,2.37,2.05,.6,.9,1.02,2.01,1.27,3.32,.25,1.32,.38,2.8,.38,4.47v10.14c0,.87,.03,1.81,.1,2.83,.07,1.01,.15,1.82,.25,2.42h-3.5Zm-.65-12.34h-1.85c-.77,0-1.51,.07-2.23,.2-.71,.13-1.35,.4-1.92,.78-.57,.38-1.02,.91-1.37,1.57-.35,.67-.52,1.52-.52,2.54,0,1.53,.33,2.65,1,3.37,.67,.71,1.43,1.07,2.3,1.07s1.59-.25,2.17-.78c.58-.51,1.06-1.17,1.42-1.97,.37-.8,.62-1.68,.78-2.63,.15-.94,.22-1.85,.22-2.72v-1.45Z"/><path class="cls-1" d="M416.38,228.23c0,.83-.26,1.52-.77,2.05-.52,.53-1.14,.8-1.87,.8s-1.4-.26-1.9-.8c-.5-.53-.75-1.22-.75-2.05s.25-1.47,.75-2.03c.5-.55,1.13-.82,1.9-.82s1.4,.28,1.9,.82c.5,.55,.75,1.22,.75,2.03m-4.79,7.44h4.25v25.08h-4.25v-25.08Z"/><path class="cls-1" d="M427.86,260.75h-4.3v-37.76h4.3v16.93h.1c.43-1.4,1.18-2.59,2.25-3.59,1.06-1,2.38-1.5,3.95-1.5,1.33,0,2.42,.28,3.27,.84,.85,.57,1.5,1.32,1.95,2.25,.45,.93,.76,2,.92,3.2,.17,1.2,.25,2.42,.25,3.65v15.98h-4.29v-16.02c0-.7-.03-1.42-.1-2.15-.07-.73-.22-1.4-.47-2-.25-.6-.61-1.09-1.08-1.45-.47-.37-1.1-.55-1.9-.55-.7,0-1.35,.19-1.95,.57-.6,.39-1.12,.92-1.55,1.61-.43,.68-.76,1.5-1,2.45-.23,.95-.35,1.99-.35,3.13v14.42Z"/><path class="cls-1" d="M464.88,248.26c0,2-.21,3.81-.63,5.45-.41,1.62-1.02,3.03-1.8,4.19-.78,1.17-1.74,2.07-2.87,2.72-1.13,.65-2.41,.98-3.84,.98s-2.67-.32-3.8-.98c-1.13-.65-2.09-1.55-2.87-2.72-.78-1.16-1.38-2.57-1.8-4.19-.42-1.63-.63-3.45-.63-5.45s.21-3.83,.63-5.5c.41-1.66,1.01-3.07,1.77-4.24,.77-1.16,1.72-2.07,2.85-2.72,1.13-.65,2.42-.98,3.85-.98s2.71,.33,3.84,.98,2.09,1.56,2.87,2.72c.78,1.17,1.38,2.58,1.8,4.24,.42,1.67,.63,3.5,.63,5.5m-4.4-.02c0-1.36-.09-2.63-.27-3.81-.19-1.18-.48-2.21-.88-3.07-.4-.87-.9-1.54-1.5-2.04-.6-.5-1.3-.75-2.1-.75s-1.5,.25-2.1,.75c-.6,.5-1.09,1.18-1.47,2.04-.38,.86-.67,1.89-.85,3.07-.18,1.18-.28,2.44-.28,3.81s.1,2.63,.28,3.78c.18,1.17,.47,2.18,.85,3.04,.38,.86,.87,1.55,1.47,2.04,.6,.5,1.3,.74,2.1,.74s1.54-.25,2.14-.74c.6-.5,1.09-1.18,1.47-2.04,.39-.86,.67-1.87,.85-3.04,.18-1.16,.27-2.42,.27-3.78"/><path class="cls-1" d="M477.66,236.27c.97-.97,2.08-1.45,3.34-1.45l.6,.05-.2,4.44-.4-.07-.45-.02c-.8,0-1.51,.26-2.12,.77-.61,.51-1.13,1.19-1.55,2.02-.42,.83-.73,1.77-.95,2.82-.21,1.05-.33,2.13-.33,3.22v12.69h-4.29v-18.73c0-1-.02-2.07-.05-3.22-.03-1.14-.08-2.19-.15-3.12h4.05c.1,.83,.18,1.7,.22,2.6,.05,.9,.08,1.77,.08,2.6h.1c.44-2.1,1.13-3.63,2.1-4.59"/><path class="cls-1" d="M502.39,248.26c0,2-.21,3.81-.63,5.45-.41,1.62-1.02,3.03-1.8,4.19-.78,1.17-1.74,2.07-2.87,2.72-1.13,.65-2.41,.98-3.84,.98s-2.67-.32-3.8-.98c-1.13-.65-2.09-1.55-2.87-2.72-.78-1.16-1.38-2.57-1.8-4.19-.42-1.63-.63-3.45-.63-5.45s.21-3.83,.63-5.5c.41-1.66,1.01-3.07,1.77-4.24,.77-1.16,1.72-2.07,2.85-2.72,1.13-.65,2.42-.98,3.85-.98s2.71,.33,3.84,.98,2.09,1.56,2.87,2.72c.78,1.17,1.38,2.58,1.8,4.24,.42,1.67,.63,3.5,.63,5.5m-4.4-.02c0-1.36-.09-2.63-.27-3.81-.19-1.18-.48-2.21-.88-3.07-.4-.87-.9-1.54-1.5-2.04-.6-.5-1.3-.75-2.1-.75s-1.5,.25-2.1,.75c-.6,.5-1.09,1.18-1.47,2.04-.38,.86-.67,1.89-.85,3.07-.18,1.18-.28,2.44-.28,3.81s.1,2.63,.28,3.78c.18,1.17,.47,2.18,.85,3.04,.38,.86,.87,1.55,1.47,2.04s1.3,.74,2.1,.74,1.54-.25,2.14-.74c.6-.5,1.09-1.18,1.47-2.04,.39-.86,.67-1.87,.85-3.04,.18-1.16,.27-2.42,.27-3.78"/><polygon class="cls-1" points="534.5 260.75 523.22 233.32 523.06 233.32 523.06 260.75 518.92 260.75 518.92 225.38 524.31 225.38 535.45 252.85 535.61 252.85 535.61 225.38 539.75 225.38 539.75 260.75 534.5 260.75"/><path class="cls-1" d="M551.84,235.72v15.99c0,.7,.03,1.42,.1,2.15,.07,.73,.23,1.4,.48,2,.25,.6,.61,1.08,1.07,1.45,.47,.37,1.1,.55,1.9,.55,.7,0,1.35-.19,1.95-.57,.6-.38,1.12-.91,1.55-1.6,.43-.68,.77-1.5,1-2.44,.23-.95,.35-1.99,.35-3.13v-14.39h4.25v18.73c0,1,0,2.07,.05,3.21,.03,1.14,.08,2.17,.14,3.09h-4.04c-.1-.83-.18-1.66-.23-2.5-.05-.83-.07-1.45-.07-1.85h-.1c-.47,1.47-1.24,2.7-2.33,3.7-1.08,1-2.4,1.5-3.97,1.5-1.37,0-2.46-.28-3.3-.84-.83-.56-1.47-1.3-1.92-2.23s-.76-1.98-.92-3.18c-.17-1.2-.25-2.41-.25-3.65v-15.99h4.29Z"/><polygon class="cls-1" points="584.4 260.75 576.66 248.36 576.56 248.36 576.56 260.75 572.31 260.75 572.31 222.98 576.56 222.98 576.56 246.56 576.66 246.56 584 235.67 589 235.67 580.41 247.26 589.45 260.75 584.4 260.75"/><path class="cls-1" d="M597.59,235.72v15.99c0,.7,.03,1.42,.1,2.15,.07,.73,.23,1.4,.48,2,.25,.6,.61,1.08,1.07,1.45,.47,.37,1.1,.55,1.9,.55,.7,0,1.35-.19,1.95-.57,.6-.38,1.12-.91,1.55-1.6,.43-.68,.77-1.5,1-2.44,.23-.95,.35-1.99,.35-3.13v-14.39h4.25v18.73c0,1,0,2.07,.05,3.21,.03,1.14,.08,2.17,.15,3.09h-4.05c-.1-.83-.18-1.66-.23-2.5-.05-.83-.07-1.45-.07-1.85h-.1c-.47,1.47-1.24,2.7-2.33,3.7-1.08,1-2.4,1.5-3.97,1.5-1.37,0-2.46-.28-3.29-.84-.83-.56-1.48-1.3-1.93-2.23s-.76-1.98-.92-3.18c-.17-1.2-.25-2.41-.25-3.65v-15.99h4.29Z"/><path class="cls-1" d="M624.51,236.27c.97-.97,2.08-1.45,3.35-1.45l.6,.05-.2,4.44-.4-.07-.45-.02c-.8,0-1.51,.26-2.12,.77-.62,.51-1.13,1.19-1.55,2.02-.42,.83-.74,1.77-.95,2.82-.22,1.05-.33,2.13-.33,3.22v12.69h-4.29v-18.73c0-1-.02-2.07-.05-3.22-.03-1.14-.08-2.19-.15-3.12h4.05c.1,.83,.18,1.7,.22,2.6,.05,.9,.08,1.77,.08,2.6h.1c.43-2.1,1.13-3.63,2.1-4.59"/><path class="cls-1" d="M643.24,260.74c-.13-.76-.23-1.53-.3-2.3-.07-.77-.1-1.38-.1-1.85h-.1c-.36,1.5-1.02,2.67-1.97,3.52-.95,.85-2.25,1.27-3.92,1.27-.7,0-1.42-.13-2.15-.4-.73-.27-1.39-.7-1.97-1.3-.59-.6-1.06-1.36-1.45-2.3-.38-.93-.57-2.08-.57-3.45,0-1.79,.32-3.27,.97-4.42,.66-1.15,1.47-2.05,2.45-2.7,.98-.65,2.07-1.09,3.27-1.32,1.2-.23,2.35-.35,3.45-.35h1.65v-1.1c0-1.96-.37-3.39-1.12-4.27-.75-.88-1.75-1.32-3.02-1.32-.93,0-1.8,.23-2.6,.7-.8,.47-1.48,1.09-2.05,1.85l-2.15-2.65c.83-1.13,1.92-2.01,3.25-2.62,1.33-.62,2.64-.92,3.95-.92,1.43,0,2.64,.23,3.62,.7,.98,.47,1.77,1.15,2.37,2.05,.6,.9,1.02,2.01,1.27,3.32,.25,1.32,.38,2.8,.38,4.47v10.14c0,.87,.03,1.81,.1,2.83,.06,1.01,.15,1.82,.25,2.42h-3.5Zm-.65-12.34h-1.85c-.77,0-1.51,.07-2.22,.2-.72,.13-1.36,.4-1.93,.78-.57,.38-1.02,.91-1.37,1.57-.35,.67-.52,1.52-.52,2.54,0,1.53,.33,2.65,1,3.37,.67,.71,1.43,1.07,2.3,1.07s1.59-.25,2.17-.78c.59-.51,1.06-1.17,1.43-1.97,.36-.8,.62-1.68,.77-2.63,.15-.94,.22-1.85,.22-2.72v-1.45Z"/><path class="cls-1" d="M666.32,260.75v-16.02c0-.7-.03-1.42-.1-2.15-.07-.73-.23-1.4-.48-2s-.61-1.09-1.07-1.45c-.46-.37-1.1-.55-1.9-.55-.7,0-1.35,.19-1.95,.57-.6,.39-1.12,.92-1.55,1.61-.43,.68-.77,1.5-1,2.45-.23,.95-.35,1.99-.35,3.13v14.42h-4.25v-18.73c0-1-.01-2.07-.05-3.22-.03-1.15-.09-2.19-.15-3.13h4.04c.1,.83,.18,1.67,.23,2.5,.05,.83,.07,1.45,.07,1.85h.1c.47-1.47,1.24-2.7,2.33-3.7,1.08-1,2.4-1.5,3.97-1.5,1.33,0,2.43,.28,3.27,.84,.85,.57,1.5,1.32,1.94,2.25,.45,.93,.76,2,.92,3.2,.17,1.2,.25,2.42,.25,3.65v15.98h-4.3Z"/><path class="cls-1" d="M690.69,235.67h4.15v25.07c0,1.7-.16,3.27-.48,4.72-.31,1.45-.85,2.72-1.6,3.8-.75,1.09-1.73,1.93-2.95,2.55-1.22,.61-2.71,.92-4.47,.92s-3.31-.36-4.82-1.08c-1.52-.71-2.75-1.67-3.72-2.87l2.65-3c.73,.9,1.62,1.64,2.64,2.23,1.03,.58,2.17,.88,3.4,.88,1.03,0,1.88-.21,2.55-.63,.67-.41,1.2-.99,1.6-1.72,.4-.74,.67-1.61,.82-2.61,.15-1,.22-2.06,.22-3.19v-3.95h-.1c-.4,1.36-1.04,2.51-1.93,3.42-.88,.91-2.18,1.37-3.92,1.37-1.27,0-2.4-.34-3.4-1.02-1-.68-1.84-1.62-2.52-2.82-.69-1.2-1.2-2.63-1.55-4.27-.35-1.64-.53-3.45-.53-5.42s.17-3.7,.51-5.32c.33-1.61,.84-3.01,1.52-4.19,.69-1.18,1.52-2.1,2.52-2.74,1-.65,2.15-.97,3.45-.97,1.47,0,2.7,.41,3.72,1.25,1.01,.83,1.71,1.9,2.07,3.2h.15v-3.6Zm0,12.54c0-1.37-.1-2.64-.3-3.82-.2-1.18-.5-2.21-.92-3.07-.41-.86-.92-1.54-1.52-2.04-.6-.5-1.3-.75-2.1-.75s-1.54,.25-2.12,.75c-.59,.5-1.07,1.18-1.44,2.04-.39,.87-.67,1.89-.85,3.07-.19,1.18-.28,2.45-.28,3.82s.09,2.63,.28,3.8c.19,1.16,.46,2.18,.85,3.04,.38,.87,.86,1.55,1.44,2.05,.58,.5,1.29,.75,2.12,.75s1.51-.25,2.13-.75c.61-.5,1.12-1.19,1.52-2.05,.4-.86,.7-1.88,.9-3.04,.2-1.17,.3-2.43,.3-3.8"/><path class="cls-1" d="M707.33,228.23c0,.83-.26,1.52-.78,2.05-.51,.53-1.14,.8-1.87,.8s-1.4-.26-1.9-.8c-.5-.53-.75-1.22-.75-2.05s.26-1.47,.75-2.03c.5-.55,1.13-.82,1.9-.82s1.4,.28,1.9,.82c.51,.55,.75,1.22,.75,2.03m-4.79,7.44h4.25v25.08h-4.25v-25.08Z"/></g></svg>