<?xml version="1.0" encoding="UTF-8"?><svg id="Layer_1" xmlns="http://www.w3.org/2000/svg" xmlns:xlink="http://www.w3.org/1999/xlink" viewBox="0 0 1080 1720"><defs><style>.cls-1{fill:#fff;}.cls-2{clip-path:url(#clippath);}.cls-3{fill:none;}</style><clipPath id="clippath"><rect class="cls-3" x="16" y="25.8" width="1045" height="1648.2"/></clipPath></defs><g class="cls-2"><path class="cls-1" d="M1044.23,504.53c-27.32,3.3-40.52,32.98-46.79,56.94-2.55,8.21-8.36,33.78-12.2,104.06-4.69,85.62-17.19,161.38-33.33,201.53l-.25,.81c68.53-88.38,109.33-199.31,109.33-319.79,0-14.56-.63-28.96-1.78-43.22-2.66-.48-5.47-.74-8.47-.74-2.08,0-4.24,.12-6.52,.4m-189.36,13.19c-48.48,65.55-88.77,157.67-104.59,196.2-27.75,74.71-104.63,249.31-238.65,321.24-27.76,17.28-49.13,24.51-64.62,27.24,29.75,5.26,60.38,8.02,91.64,8.02,9.04,0,18.04-.23,26.97-.69,38.59-1.96,76.7-9.82,112.2-25.09,116.85-50.21,205.38-159.54,232.29-291.34,16-63.82,23.45-126.69,36.23-173.24,7.48-31.89,35.52-122.84,108.86-109.91-3.19-21.3-7.67-42.17-13.35-62.56-24.31,.35-116.85,8.61-187,110.11m-86.99-362.51c10.06,12.12,19.91,25.13,29.26,39.14,1.99,2.97,3.93,5.84,5.85,8.69,25.98,39.68,44.07,66.48,56.43,83.65l.77,1.08,1.53,2.07,1.94,2.64,1.25,1.66c3.7,4.96,6.75,8.8,9.24,11.66,40.8,48.92,78.14,60.17,105.66,58.84,4.78-.34,9.66-1.2,14.51-2.72,10.43-3.25,19.23-8.91,25.93-15.89-67.5-160.66-213.01-280.43-389.12-311.99,27.57,13.71,77.74,46.49,136.76,121.15M453.73,32.67c64.34,26.92,243.42,118.35,249.53,287.26,2.69,74.14-18.92,129.43-47.45,169.77-11.01,17.2-24.38,32.83-39.59,46.58-36.45,35.92-88.77,63.05-149.62,73.5-32.94,5.66-65.16,5.85-95.15,1.4-6.68-.97-13.24-2.21-19.7-3.65-.93-.21-1.88-.43-2.82-.66-2.12-.49-4.24-1.01-6.32-1.57-1.14-.3-2.27-.58-3.37-.89-2.11-.58-4.2-1.2-6.28-1.83-.93-.28-1.88-.54-2.81-.84l-.75-.14c-81.77-19.25-138.88-96.08-130.77-181.79,6.55-68.95,53.49-124.33,115.3-145.2,20.88-6.07,39.99-8.54,56.19-8.94,2.13,.02,4.27-.07,6.42,.04h1.63c1.54-.02,3.03,.04,4.54,.06,3.11,.13,6.07,.34,8.88,.61,9.58,.92,18.26,2.46,26.2,4.45,12.24,3.59,22.7,8.82,31.61,14.96l.11,.06c11.45,8.81,21.29,18.62,27.58,29.7-3.99-1.66-8.09-3.18-12.3-4.53-41.49-13.32-83.76-8.05-115.04,10.91-19.35,11.04-34.61,27.25-43,47.91-13.29,32.59-6.74,69.2,14.29,100.19,.96,1.09,1.59,2.3,2.58,3.37,16.83,22.43,42.28,40.54,72.9,50.38,19.47,6.24,39.11,8.4,57.71,6.97,95.03-.48,177.22-79.57,189.31-185.06,4.73-57.76-13.36-121.52-76.93-184.21-54.21-53.45-120.6-88.14-188.8-110.46-54.98,17.76-105.97,44.34-151.29,78.12,43.45-6.31,127.08-10.38,211.4,29.9,101.2,50.34,113.39,133.93,112.65,148.44-37.38-74.97-105.43-115.33-182.88-127.37-90.23-14.02-177.63,15.66-241.73,73.7-41.14,37.24-69.87,85.96-86.38,138.93-15.31,49.12-23.55,101.34-23.55,155.5,0,231.14,150.12,427.19,358.19,496.04-11.31-11.84-59.28-71.95-.01-189.19,21.42-42.38,51.09-79.99,86.1-112.06,58.56-53.65,130.28-100.29,168.18-127.87,54.94-39.98,156.91-138.28,143.08-281.76-12.59-197.7-165.82-285.64-210.14-307.04-7.63-.34-15.3-.53-22.99-.53-28.84,0-57.11,2.38-84.68,6.87"/><polygon class="cls-1" points="189.87 1577.59 189.87 1647.43 179.92 1647.43 179.92 1577.59 164.97 1577.59 164.97 1569.07 204.81 1569.07 204.81 1577.59 189.87 1577.59"/><path class="cls-1" d="M233.82,1647.43c-.3-1.7-.52-3.39-.67-5.09-.15-1.69-.23-3.05-.23-4.09h-.23c-.81,3.31-2.27,5.93-4.37,7.8-2.1,1.89-4.99,2.82-8.69,2.82-1.55,0-3.13-.3-4.76-.88-1.62-.59-3.08-1.56-4.37-2.88-1.29-1.32-2.37-3.02-3.21-5.09-.85-2.06-1.27-4.61-1.27-7.63,0-3.99,.72-7.26,2.15-9.8,1.43-2.55,3.25-4.54,5.42-5.98,2.17-1.44,4.59-2.42,7.25-2.93,2.66-.51,5.21-.78,7.64-.78h3.65v-2.43c0-4.36-.83-7.51-2.48-9.46-1.66-1.96-3.9-2.93-6.69-2.93-2.07,0-3.99,.51-5.76,1.55-1.77,1.04-3.28,2.4-4.54,4.09l-4.76-5.86c1.85-2.5,4.24-4.44,7.2-5.81,2.95-1.36,5.86-2.04,8.74-2.04,3.17,0,5.84,.51,8.03,1.54,2.16,1.05,3.93,2.55,5.25,4.54,1.33,2,2.28,4.45,2.83,7.36,.55,2.92,.82,6.22,.82,9.9v22.47c0,1.92,.08,4.01,.23,6.25,.14,2.26,.33,4.04,.55,5.37h-7.74Zm-1.45-27.34h-4.09c-1.7,0-3.34,.14-4.93,.44-1.59,.3-3,.87-4.26,1.72-1.25,.85-2.27,2.01-3.03,3.48-.78,1.49-1.17,3.36-1.17,5.65,0,3.39,.74,5.88,2.21,7.47,1.48,1.59,3.17,2.38,5.1,2.38s3.52-.56,4.81-1.72c1.3-1.14,2.34-2.59,3.16-4.37,.81-1.76,1.38-3.71,1.72-5.81,.33-2.09,.49-4.11,.49-6.03v-3.21Z"/><path class="cls-1" d="M267.35,1575.38c0,1.85-.57,3.35-1.71,4.54-1.15,1.18-2.53,1.76-4.16,1.76s-3.1-.58-4.2-1.76c-1.11-1.19-1.66-2.7-1.66-4.54s.55-3.27,1.66-4.49c1.11-1.21,2.51-1.81,4.2-1.81s3.11,.6,4.21,1.81c1.11,1.22,1.66,2.72,1.66,4.49m-10.63,16.48h9.4v55.56h-9.4v-55.56Z"/><path class="cls-1" d="M292.8,1647.43h-9.52v-83.67h9.52v37.52h.23c.95-3.1,2.62-5.75,4.98-7.97,2.36-2.21,5.27-3.32,8.74-3.32,2.94,0,5.36,.63,7.25,1.88,1.88,1.26,3.31,2.91,4.32,4.98,.99,2.06,1.67,4.43,2.04,7.08s.55,5.35,.55,8.08v35.42h-9.51v-35.5c0-1.55-.07-3.14-.22-4.77-.15-1.63-.5-3.11-1.06-4.44-.55-1.33-1.35-2.4-2.38-3.21-1.03-.82-2.44-1.22-4.21-1.22-1.55,0-2.98,.42-4.32,1.27-1.32,.85-2.47,2.03-3.42,3.55-.96,1.52-1.7,3.33-2.21,5.43-.52,2.11-.78,4.42-.78,6.93v31.95Z"/><path class="cls-1" d="M374.81,1619.77c0,4.42-.46,8.45-1.38,12.06-.92,3.62-2.26,6.71-3.99,9.3-1.73,2.58-3.85,4.59-6.37,6.04-2.5,1.44-5.34,2.15-8.52,2.15s-5.91-.72-8.41-2.15c-2.51-1.45-4.63-3.45-6.38-6.04-1.72-2.58-3.06-5.68-3.98-9.3-.92-3.61-1.38-7.64-1.38-12.06s.46-8.49,1.38-12.18c.92-3.69,2.22-6.83,3.93-9.41s3.8-4.59,6.31-6.03c2.5-1.44,5.35-2.16,8.52-2.16s6.02,.73,8.52,2.16c2.51,1.44,4.63,3.44,6.37,6.03,1.73,2.58,3.07,5.72,3.99,9.41,.92,3.69,1.38,7.75,1.38,12.18m-9.74-.06c0-3.01-.21-5.82-.62-8.44-.4-2.62-1.05-4.88-1.94-6.8-.88-1.92-1.99-3.42-3.31-4.53-1.33-1.1-2.88-1.65-4.65-1.65s-3.32,.55-4.64,1.65c-1.33,1.11-2.42,2.61-3.27,4.53s-1.48,4.17-1.89,6.8c-.4,2.61-.6,5.42-.6,8.44s.2,5.81,.6,8.39c.41,2.58,1.04,4.83,1.89,6.74,.85,1.92,1.94,3.43,3.27,4.53,1.32,1.11,2.87,1.65,4.64,1.65s3.43-.54,4.76-1.65c1.33-1.1,2.42-2.61,3.27-4.53,.85-1.91,1.48-4.15,1.88-6.74,.41-2.57,.62-5.36,.62-8.39"/><path class="cls-1" d="M403.14,1593.2c2.14-2.13,4.61-3.21,7.41-3.21l1.33,.11-.44,9.85-.89-.16-.99-.06c-1.77,0-3.34,.57-4.71,1.72-1.36,1.14-2.5,2.63-3.42,4.48-.93,1.85-1.63,3.93-2.11,6.25-.47,2.32-.72,4.71-.72,7.14v28.11h-9.51v-41.5c0-2.21-.04-4.59-.11-7.15-.07-2.54-.18-4.85-.33-6.92h8.96c.23,1.85,.39,3.77,.5,5.76s.16,3.92,.16,5.75h.23c.95-4.64,2.5-8.04,4.64-10.18"/><path class="cls-1" d="M457.93,1619.77c0,4.42-.46,8.45-1.38,12.06-.92,3.62-2.26,6.71-3.99,9.3s-3.85,4.59-6.37,6.04c-2.5,1.44-5.34,2.15-8.52,2.15s-5.91-.72-8.41-2.15c-2.51-1.45-4.63-3.45-6.37-6.04s-3.07-5.68-3.99-9.3c-.92-3.61-1.38-7.64-1.38-12.06s.46-8.49,1.38-12.18c.92-3.69,2.24-6.83,3.93-9.41,1.7-2.58,3.8-4.59,6.31-6.03,2.5-1.44,5.35-2.16,8.52-2.16s6.02,.73,8.52,2.16c2.51,1.44,4.63,3.44,6.37,6.03s3.07,5.72,3.99,9.41c.92,3.69,1.38,7.75,1.38,12.18m-9.74-.06c0-3.01-.21-5.82-.61-8.44-.41-2.62-1.06-4.88-1.94-6.8-.89-1.92-2-3.42-3.32-4.53-1.33-1.1-2.88-1.65-4.65-1.65s-3.32,.55-4.64,1.65c-1.33,1.11-2.42,2.61-3.27,4.53-.85,1.92-1.48,4.17-1.89,6.8-.4,2.61-.6,5.42-.6,8.44s.2,5.81,.6,8.39c.41,2.58,1.04,4.83,1.89,6.74,.85,1.92,1.94,3.43,3.27,4.53,1.32,1.11,2.87,1.65,4.64,1.65s3.43-.54,4.76-1.65c1.33-1.1,2.42-2.61,3.27-4.53,.85-1.91,1.48-4.15,1.89-6.74,.4-2.57,.61-5.36,.61-8.39"/><polygon class="cls-1" points="529.09 1647.43 504.08 1586.67 503.74 1586.67 503.74 1647.43 494.56 1647.43 494.56 1569.07 506.52 1569.07 531.19 1629.94 531.52 1629.94 531.52 1569.07 540.72 1569.07 540.72 1647.43 529.09 1647.43"/><path class="cls-1" d="M567.5,1591.98v35.42c0,1.55,.07,3.14,.23,4.76,.14,1.63,.49,3.1,1.05,4.43,.55,1.33,1.34,2.4,2.38,3.21,1.04,.82,2.44,1.22,4.2,1.22,1.55,0,2.99-.43,4.33-1.28,1.32-.84,2.47-2.02,3.42-3.54,.95-1.51,1.69-3.32,2.21-5.42,.51-2.1,.78-4.41,.78-6.92v-31.87h9.41v41.51c0,2.21,.03,4.58,.1,7.1,.07,2.52,.18,4.81,.33,6.84h-8.96c-.23-1.84-.39-3.69-.49-5.54-.12-1.84-.17-3.21-.17-4.09h-.22c-1.04,3.24-2.75,5.98-5.15,8.19-2.4,2.21-5.33,3.32-8.81,3.32-3.02,0-5.45-.63-7.3-1.86-1.85-1.24-3.27-2.88-4.26-4.93-.99-2.04-1.68-4.39-2.05-7.05-.37-2.66-.55-5.35-.55-8.08v-35.42h9.52Z"/><polygon class="cls-1" points="639.66 1647.43 622.5 1619.98 622.28 1619.98 622.28 1647.43 612.87 1647.43 612.87 1563.76 622.28 1563.76 622.28 1616 622.5 1616 638.77 1591.87 649.84 1591.87 630.8 1617.55 650.83 1647.43 639.66 1647.43"/><path class="cls-1" d="M668.88,1591.98v35.42c0,1.55,.07,3.14,.23,4.76,.14,1.63,.49,3.1,1.06,4.43,.54,1.33,1.33,2.4,2.37,3.21,1.04,.82,2.44,1.22,4.2,1.22,1.55,0,2.99-.43,4.33-1.28,1.32-.84,2.47-2.02,3.42-3.54,.95-1.51,1.69-3.32,2.21-5.42,.51-2.1,.78-4.41,.78-6.92v-31.87h9.41v41.51c0,2.21,.03,4.58,.1,7.1,.07,2.52,.18,4.81,.34,6.84h-8.97c-.23-1.84-.39-3.69-.49-5.54-.11-1.84-.17-3.21-.17-4.09h-.22c-1.04,3.24-2.75,5.98-5.15,8.19-2.4,2.21-5.33,3.32-8.81,3.32-3.02,0-5.45-.63-7.3-1.86-1.85-1.24-3.27-2.88-4.26-4.93-.99-2.04-1.68-4.39-2.05-7.05-.37-2.66-.55-5.35-.55-8.08v-35.42h9.52Z"/><path class="cls-1" d="M728.53,1593.2c2.13-2.13,4.61-3.21,7.41-3.21l1.33,.11-.44,9.85-.89-.16-.99-.06c-1.77,0-3.34,.57-4.71,1.72-1.36,1.14-2.5,2.63-3.42,4.48-.93,1.85-1.63,3.93-2.1,6.25-.49,2.32-.73,4.71-.73,7.14v28.11h-9.52v-41.5c0-2.21-.03-4.59-.1-7.15-.08-2.54-.18-4.85-.33-6.92h8.96c.23,1.85,.39,3.77,.5,5.76s.16,3.92,.16,5.75h.23c.95-4.64,2.5-8.04,4.64-10.18"/><path class="cls-1" d="M770.04,1647.43c-.3-1.7-.52-3.39-.67-5.09-.15-1.69-.23-3.05-.23-4.09h-.23c-.81,3.31-2.27,5.93-4.37,7.8-2.1,1.89-4.99,2.82-8.68,2.82-1.56,0-3.14-.3-4.76-.88-1.63-.59-3.09-1.56-4.38-2.88-1.29-1.32-2.36-3.02-3.21-5.09-.85-2.06-1.27-4.61-1.27-7.63,0-3.99,.72-7.26,2.15-9.8,1.43-2.55,3.25-4.54,5.42-5.98,2.17-1.44,4.59-2.42,7.25-2.93,2.66-.51,5.21-.78,7.64-.78h3.65v-2.43c0-4.36-.83-7.51-2.48-9.46-1.66-1.96-3.9-2.93-6.69-2.93-2.07,0-3.99,.51-5.76,1.55-1.77,1.04-3.28,2.4-4.54,4.09l-4.76-5.86c1.85-2.5,4.24-4.44,7.2-5.81,2.95-1.36,5.86-2.04,8.74-2.04,3.17,0,5.85,.51,8.03,1.54,2.17,1.05,3.93,2.55,5.25,4.54,1.33,2,2.28,4.45,2.83,7.36,.55,2.92,.83,6.22,.83,9.9v22.47c0,1.92,.07,4.01,.22,6.25,.15,2.26,.34,4.04,.55,5.37h-7.74Zm-1.45-27.34h-4.09c-1.7,0-3.34,.14-4.93,.44-1.59,.3-3,.87-4.26,1.72-1.25,.85-2.27,2.01-3.03,3.48-.78,1.49-1.16,3.36-1.16,5.65,0,3.39,.73,5.88,2.2,7.47,1.48,1.59,3.17,2.38,5.1,2.38s3.52-.56,4.81-1.72c1.3-1.14,2.35-2.59,3.16-4.37,.81-1.76,1.38-3.71,1.72-5.81,.33-2.09,.49-4.11,.49-6.03v-3.21Z"/><path class="cls-1" d="M821.16,1647.43v-35.5c0-1.55-.07-3.14-.23-4.77-.14-1.63-.49-3.11-1.05-4.44s-1.34-2.4-2.38-3.21c-1.04-.82-2.44-1.22-4.2-1.22-1.55,0-2.99,.42-4.33,1.27-1.32,.85-2.47,2.03-3.42,3.55-.96,1.52-1.7,3.33-2.21,5.43-.51,2.11-.78,4.42-.78,6.93v31.95h-9.41v-41.5c0-2.22-.03-4.6-.1-7.15-.08-2.54-.18-4.85-.34-6.92h8.97c.23,1.85,.39,3.69,.49,5.54,.12,1.85,.17,3.21,.17,4.1h.22c1.04-3.25,2.75-5.98,5.15-8.19,2.4-2.21,5.33-3.32,8.81-3.32,2.95,0,5.36,.63,7.25,1.88,1.88,1.26,3.32,2.91,4.32,4.98,.99,2.06,1.67,4.43,2.05,7.08,.37,2.66,.55,5.35,.55,8.08v35.42h-9.52Z"/><path class="cls-1" d="M875.17,1591.87h9.19v55.56c0,3.76-.35,7.25-1.05,10.46-.71,3.21-1.89,6.02-3.55,8.41-1.66,2.41-3.83,4.29-6.53,5.65-2.69,1.37-6,2.05-9.9,2.05s-7.33-.79-10.68-2.38c-3.36-1.59-6.1-3.71-8.24-6.37l5.86-6.64c1.62,2,3.58,3.64,5.86,4.93,2.29,1.29,4.8,1.94,7.52,1.94,2.3,0,4.17-.46,5.65-1.38s2.65-2.19,3.55-3.81c.88-1.63,1.49-3.55,1.82-5.76,.33-2.21,.49-4.58,.49-7.08v-8.74h-.23c-.87,3.02-2.3,5.56-4.25,7.59-1.96,2.03-4.86,3.03-8.68,3.03-2.81,0-5.32-.75-7.53-2.27-2.21-1.51-4.07-3.6-5.59-6.25-1.52-2.66-2.66-5.81-3.43-9.46-.77-3.65-1.16-7.65-1.16-12s.37-8.21,1.11-11.79c.73-3.58,1.87-6.68,3.37-9.3,1.52-2.61,3.38-4.65,5.6-6.09,2.2-1.44,4.75-2.15,7.64-2.15,3.24,0,5.99,.92,8.24,2.77,2.26,1.85,3.77,4.2,4.59,7.08h.33v-7.98Zm0,27.78c0-3.02-.23-5.84-.67-8.47-.43-2.61-1.12-4.88-2.04-6.81-.93-1.92-2.05-3.42-3.38-4.53-1.32-1.12-2.87-1.66-4.64-1.66s-3.41,.54-4.71,1.66c-1.29,1.11-2.37,2.61-3.21,4.53-.85,1.93-1.48,4.19-1.89,6.81-.4,2.62-.6,5.44-.6,8.47s.2,5.82,.6,8.42c.41,2.57,1.04,4.83,1.89,6.75,.84,1.92,1.92,3.43,3.21,4.54,1.29,1.1,2.86,1.66,4.71,1.66s3.34-.56,4.71-1.66c1.36-1.11,2.49-2.62,3.37-4.54,.89-1.92,1.56-4.17,1.99-6.75,.44-2.59,.67-5.38,.67-8.42"/><path class="cls-1" d="M912.04,1575.38c0,1.85-.57,3.35-1.72,4.54-1.14,1.18-2.52,1.76-4.15,1.76s-3.1-.58-4.2-1.76c-1.11-1.19-1.66-2.7-1.66-4.54s.55-3.27,1.66-4.49c1.11-1.21,2.51-1.81,4.2-1.81s3.11,.6,4.21,1.81c1.11,1.22,1.66,2.72,1.66,4.49m-10.63,16.48h9.41v55.56h-9.41v-55.56Z"/><path class="cls-1" d="M399.76,1206.87h-58.56c-2.09,0-3.78,1.69-3.78,3.77v276.05c0,2.08,1.69,3.77,3.78,3.77h58.56c2.08,0,3.77-1.69,3.77-3.77v-276.05c0-2.08-1.69-3.77-3.77-3.77"/><path class="cls-1" d="M864.4,1234.56l-32.9,251.64c-.3,2.27,1.47,4.26,3.74,4.26h59.06c1.9,0,3.51-1.4,3.75-3.28l6.08-46.46h77.67l6.08,46.46c.25,1.88,1.85,3.28,3.75,3.28h59.05c2.29,0,4.04-2,3.74-4.26l-32.89-251.64c-2.06-15.7-15.43-27.42-31.26-27.42h-94.63c-15.82,0-29.2,11.73-31.25,27.42m48.4,140.06l12.42-94.85c.49-3.73,3.67-6.53,7.42-6.53h20.64c3.76,0,6.94,2.8,7.43,6.53l12.43,94.85h-60.34Z"/><path class="cls-1" d="M809.84,1206.83h-59.45c-.94,0-1.81,.34-2.48,.92-.67,.58-1.14,1.39-1.26,2.33l-30.44,212.6-.06,.48h-.03l-1.6,1.47-1.6-1.47h-.04l-19.07-187.99c-1.63-16.08-15.17-28.34-31.35-28.34h-65.06c-16.17,0-29.72,12.25-31.36,28.34l-19.06,187.99h-.03l-1.6,1.47-1.6-1.47h-.04l-.06-.48-30.43-212.6c-.28-1.87-1.87-3.25-3.75-3.25h-59.45c-2.31,0-4.06,2.04-3.75,4.32l36.05,252.26c2.21,15.52,15.51,27.06,31.2,27.06h63.16c16.18,0,29.72-12.24,31.36-28.34l19.02-187.15h0s.19-.81,.19-.81l.17-.44,.32-.45,.31-.34,.48-.33,.37-.22,.94-.18h.16l.94,.18,.37,.22,.49,.33,.3,.34,.32,.45,.18,.44,.18,.8h0s19.02,187.16,19.02,187.16c1.64,16.09,15.18,28.34,31.36,28.34h63.16c1.96,0,3.87-.18,5.75-.53,4.68-.86,9-2.76,12.73-5.46,6.72-4.86,11.46-12.33,12.71-21.07l36.05-252.26c.32-2.28-1.45-4.32-3.75-4.32"/><path class="cls-1" d="M277.34,1206.82h-57.31c-2.08,0-3.78,1.7-3.78,3.79v211.7h0s-.11,.8-.11,.8l-.13,.45-.27,.45-.27,.34-.46,.33-.34,.2-.92,.18h-.09s-.07,0-.07,0l-.96-.18-.39-.2-.52-.33-.34-.34-.37-.45-.23-.45-.28-.79h0s-60.61-189.05-60.61-189.05c-4.03-15.15-18.3-26.46-33.83-26.46H51c-16.17,0-28.44,12.25-28.4,28.34v251.52c0,2.09,1.69,3.79,3.78,3.79h57.58c2.09,0,3.79-1.7,3.79-3.79v-211.7h0s.1-.81,.1-.81l.13-.45,.27-.44,.28-.35,.45-.32,.34-.22,.93-.18h.16l.96,.18,.39,.22,.52,.32,.34,.35,.36,.44,.24,.45,.27,.8h0s60.99,190.43,60.99,190.43c4.51,14.44,18.39,25.08,33.45,25.08h65.07c16.16,0,28.16-12.25,28.12-28.34v-251.52c0-2.09-1.7-3.79-3.79-3.79"/></g></svg>